<svg width="28" height="28" viewBox="0 0 28 28" fill="none" xmlns="http://www.w3.org/2000/svg">
<path d="M14.0002 0.200073C11.2708 0.200073 8.60273 1.00943 6.33333 2.52579C4.06393 4.04216 2.29515 6.19742 1.25066 8.71904C0.206175 11.2407 -0.0671114 14.0154 0.465365 16.6923C0.997841 19.3693 2.31216 21.8282 4.24213 23.7581C6.17209 25.6881 8.63102 27.0024 11.308 27.5349C13.9849 28.0674 16.7596 27.7941 19.2812 26.7496C21.8029 25.7051 23.9581 23.9363 25.4745 21.6669C26.9908 19.3975 27.8002 16.7295 27.8002 14.0001C27.8002 12.1878 27.4433 10.3933 26.7497 8.71904C26.0562 7.04475 25.0397 5.52345 23.7583 4.242C22.4768 2.96055 20.9555 1.94405 19.2812 1.25054C17.6069 0.557021 15.8124 0.200073 14.0002 0.200073ZM14.0002 25.0401C11.0722 25.0401 8.26414 23.8769 6.19374 21.8065C4.12334 19.7361 2.9602 16.9281 2.9602 14.0001C2.95715 11.5483 3.77856 9.16669 5.2924 7.23807L20.7622 22.7079C18.8336 24.2217 16.452 25.0431 14.0002 25.0401ZM22.708 20.7621L7.2382 5.29227C9.16681 3.77843 11.5484 2.95702 14.0002 2.96007C16.9282 2.96007 19.7363 4.12321 21.8067 6.19361C23.8771 8.26402 25.0402 11.0721 25.0402 14.0001C25.0432 16.4519 24.2218 18.8335 22.708 20.7621Z" fill="white"/>
</svg>
