<?xml version="1.0" standalone="no"?>
<!DOCTYPE svg PUBLIC "-//W3C//DTD SVG 20010904//EN"
 "http://www.w3.org/TR/2001/REC-SVG-20010904/DTD/svg10.dtd">
<svg version="1.0" xmlns="http://www.w3.org/2000/svg"
 width="1964.000000pt" height="1775.000000pt" viewBox="0 0 1964.000000 1775.000000"
 preserveAspectRatio="xMidYMid meet">

<g transform="translate(0.000000,1775.000000) scale(0.100000,-0.100000)"
fill="#000000" stroke="none">
<path d="M8970 17743 c-895 -95 -1724 -307 -2546 -651 -158 -67 -198 -85 -449
-207 -230 -113 -405 -206 -595 -318 -1543 -908 -2776 -2257 -3532 -3862 -476
-1012 -753 -2080 -832 -3213 -19 -269 -14 -1036 8 -1292 66 -751 201 -1414
428 -2095 38 -115 80 -237 93 -270 78 -199 115 -298 115 -306 0 -5 -96 -80
-212 -168 -282 -210 -343 -274 -418 -434 -55 -116 -73 -213 -68 -361 5 -149
30 -240 96 -356 41 -70 1740 -2347 1823 -2443 100 -114 229 -194 384 -239 65
-18 104 -22 210 -22 234 1 322 39 649 284 l228 172 37 -29 c1107 -877 2461
-1487 3880 -1747 933 -172 1902 -192 2851 -60 392 54 840 152 1255 273 979
285 1942 765 2784 1389 714 529 1381 1203 1898 1917 301 416 513 767 751 1245
238 476 393 863 543 1349 590 1919 516 3981 -210 5840 -23 58 -41 106 -41 108
0 1 78 61 173 131 210 157 286 236 350 360 68 130 90 219 90 367 1 156 -32
283 -106 406 -46 75 -1754 2359 -1824 2438 -103 116 -281 214 -439 242 -83 14
-280 6 -356 -15 -102 -28 -204 -86 -379 -217 -108 -81 -176 -125 -183 -120
-1106 883 -2398 1487 -3786 1770 -251 51 -463 85 -725 116 -210 25 -210 25
-1060 23 -467 0 -866 -3 -885 -5z m1540 -507 c449 -38 806 -93 1220 -186 843
-191 1686 -528 2430 -973 294 -175 825 -545 825 -574 0 -13 -222 -183 -239
-183 -6 0 -42 24 -81 53 -805 604 -1806 1080 -2800 1331 -1660 419 -3377 311
-4950 -311 -1575 -624 -2933 -1747 -3837 -3173 -200 -316 -462 -814 -598
-1135 -109 -259 -231 -592 -292 -795 -188 -629 -287 -1155 -340 -1815 -20
-245 -17 -948 5 -1205 63 -720 222 -1464 438 -2046 28 -77 53 -150 55 -164 4
-22 -10 -36 -116 -114 -66 -49 -122 -87 -124 -85 -32 37 -220 588 -283 829 -8
30 -25 98 -39 150 -210 799 -298 1734 -244 2590 10 164 11 174 35 395 121
1119 489 2254 1046 3225 102 178 291 482 378 605 152 218 383 516 549 709 149
172 179 204 442 466 560 559 1114 976 1845 1390 108 61 461 239 580 292 33 15
92 41 130 58 186 84 580 231 795 299 703 221 1374 341 2160 385 155 9 836 -4
1010 -18z m-185 -357 c1392 -87 2696 -508 3847 -1244 134 -85 415 -280 497
-343 l23 -19 -698 -523 c-385 -288 -909 -680 -1165 -871 l-466 -349 -104 54
c-289 151 -655 293 -993 385 -1253 345 -2582 215 -3736 -363 -808 -405 -1493
-1004 -1998 -1745 -443 -651 -741 -1419 -851 -2196 -41 -289 -46 -372 -46
-770 1 -424 7 -506 66 -860 16 -99 31 -187 32 -196 1 -12 -365 -292 -1157
-884 -1055 -789 -1160 -866 -1172 -850 -14 19 -167 475 -208 620 -165 586
-263 1186 -296 1805 -8 159 -5 732 5 835 2 28 9 113 15 190 40 543 156 1149
321 1690 325 1058 861 2034 1579 2870 272 316 656 691 991 966 309 254 760
565 1089 752 197 112 302 168 465 247 251 123 403 188 730 315 92 35 405 139
540 178 531 156 1112 260 1655 297 85 6 175 12 200 14 94 6 711 3 835 -5z
m6000 -1004 c83 -22 150 -62 211 -125 65 -67 1777 -2355 1815 -2425 38 -70 51
-127 51 -220 0 -145 -63 -278 -173 -367 -24 -19 -3300 -2471 -7279 -5449
-5424 -4058 -7250 -5419 -7294 -5437 -32 -13 -86 -28 -121 -34 -135 -23 -300
35 -399 139 -59 61 -1764 2337 -1809 2413 -98 168 -62 426 80 562 21 20 3307
2482 7302 5471 6956 5205 7268 5437 7340 5461 90 30 187 34 276 11z m-5980
-2050 c564 -55 1110 -206 1648 -454 48 -22 87 -44 87 -48 -1 -4 -32 -31 -71
-60 l-70 -51 -77 35 c-483 220 -980 352 -1567 415 -158 17 -679 17 -855 0
-1118 -109 -2115 -572 -2912 -1353 -718 -704 -1187 -1606 -1357 -2609 -72
-425 -85 -921 -35 -1335 8 -66 17 -143 21 -171 l6 -51 -68 -52 c-37 -28 -71
-51 -76 -51 -4 0 -12 30 -18 68 -78 477 -82 1045 -12 1522 182 1232 812 2336
1781 3121 746 605 1657 978 2624 1074 264 27 682 27 951 0z m-75 -225 c339
-31 676 -97 1000 -197 229 -70 595 -216 595 -237 0 -5 -1494 -1127 -3320
-2493 l-3320 -2484 -8 43 c-39 220 -59 741 -38 1004 77 988 425 1876 1030
2629 361 449 825 844 1331 1133 628 358 1369 579 2045 609 77 3 142 8 145 11
7 7 406 -6 540 -18z m7413 -1738 c72 -183 241 -724 291 -932 8 -36 26 -112 40
-170 70 -296 148 -804 176 -1150 30 -375 35 -910 10 -1250 -106 -1482 -564
-2834 -1378 -4070 -126 -190 -253 -365 -412 -565 -214 -271 -400 -477 -659
-734 -519 -514 -1091 -951 -1721 -1314 -151 -87 -574 -306 -695 -359 -33 -15
-91 -41 -130 -59 -217 -98 -634 -252 -880 -325 -694 -206 -1229 -303 -1955
-353 -176 -12 -752 -13 -965 -1 -1487 82 -2934 565 -4170 1392 -223 149 -435
303 -435 317 0 11 226 181 241 181 6 0 70 -42 143 -94 72 -51 174 -121 226
-156 52 -34 113 -75 135 -90 78 -53 363 -218 534 -310 335 -179 661 -324 1031
-460 632 -232 1356 -394 2030 -455 302 -27 475 -33 820 -30 361 4 606 20 930
60 1076 135 2144 502 3085 1062 745 444 1428 1017 2000 1679 253 292 521 658
732 999 668 1077 1058 2261 1180 3575 25 276 26 1070 0 1340 -48 508 -117 910
-232 1350 -62 239 -77 286 -161 539 -80 238 -84 254 -67 266 10 7 65 49 123
93 58 44 107 78 110 75 2 -2 13 -25 23 -51z m-269 -344 c111 -323 187 -593
255 -908 86 -397 148 -849 168 -1236 14 -261 8 -859 -11 -1074 -74 -867 -250
-1611 -561 -2385 -424 -1052 -1101 -2042 -1915 -2800 -279 -260 -425 -382
-708 -594 -941 -702 -1987 -1175 -3145 -1420 -339 -72 -809 -133 -1215 -157
-148 -8 -657 -8 -814 1 -1471 81 -2827 532 -4048 1345 -80 53 -167 113 -195
134 -27 20 -67 50 -87 65 l-38 28 23 20 c48 43 2292 1716 2306 1720 9 2 95
-34 191 -80 730 -352 1527 -521 2365 -504 544 11 1008 89 1510 254 803 263
1493 688 2090 1287 362 362 625 710 865 1141 582 1044 789 2244 594 3435 -25
149 -25 155 -7 167 10 7 531 397 1158 867 627 470 1145 855 1151 855 7 1 37
-72 68 -161z m-2660 -1888 c51 -317 65 -819 32 -1160 -95 -986 -457 -1887
-1065 -2645 -226 -281 -546 -594 -851 -832 -305 -237 -797 -518 -1155 -658
-370 -146 -762 -252 -1120 -304 -291 -42 -432 -50 -785 -46 -534 6 -964 74
-1450 231 -234 75 -630 236 -636 260 -2 5 28 32 67 60 l69 51 153 -64 c304
-128 673 -238 992 -297 332 -61 585 -80 965 -73 406 7 665 41 1065 137 163 39
513 153 630 205 17 7 66 29 110 48 176 76 439 212 567 293 424 270 719 511
1042 854 85 90 276 324 344 420 173 243 289 437 412 685 270 545 422 1089 482
1715 26 273 14 735 -27 1072 l-6 43 72 52 c40 29 74 51 75 50 2 -2 10 -46 18
-97z m-224 -67 c0 -5 5 -39 10 -78 5 -38 11 -104 15 -145 3 -41 8 -95 11 -120
9 -80 5 -532 -6 -670 -80 -1005 -473 -1948 -1125 -2705 -641 -743 -1492 -1265
-2445 -1499 -405 -99 -689 -132 -1150 -130 -504 1 -905 63 -1395 216 -141 43
-470 170 -499 191 -17 12 60 73 825 645 464 348 1947 1458 3294 2466 1348
1009 2453 1835 2458 1835 4 1 7 -2 7 -6z"/>
<path d="M9728 16527 l-207 -20 -20 -91 c-11 -50 -57 -257 -101 -461 -94 -430
-91 -417 -96 -412 -2 2 -17 145 -34 318 -16 173 -32 330 -35 349 -2 19 -7 67
-10 105 -12 153 -13 155 -52 155 -42 0 -359 -29 -392 -36 -23 -5 -24 -7 -18
-82 8 -96 145 -1524 151 -1572 3 -19 8 -64 11 -100 15 -179 33 -339 38 -347 5
-8 464 30 472 39 1 2 10 39 18 83 42 213 157 804 163 838 3 20 9 37 13 37 3 0
26 -208 50 -462 24 -255 45 -465 47 -467 4 -4 445 37 450 42 3 2 -112 1232
-131 1397 -7 67 -53 543 -61 633 -6 70 -9 77 -28 76 -11 -1 -114 -11 -228 -22z"/>
<path d="M11060 16369 c-152 -27 -255 -133 -318 -329 -36 -112 -56 -231 -56
-341 -1 -100 0 -108 29 -155 26 -41 43 -55 110 -88 l79 -40 -70 -12 c-148 -25
-214 -78 -257 -209 -29 -86 -173 -792 -164 -801 6 -7 489 -106 492 -101 1 1
36 179 79 394 87 441 91 454 122 489 20 20 32 24 83 24 33 0 62 -3 64 -7 2 -5
-38 -215 -89 -468 -50 -253 -89 -463 -85 -466 8 -8 523 -110 528 -105 7 7 416
2066 411 2071 -5 6 -469 98 -623 124 -152 26 -265 33 -335 20z m339 -388 c12
-7 7 -45 -29 -227 -24 -121 -46 -223 -50 -227 -14 -16 -88 13 -114 44 -32 38
-33 64 -5 206 23 121 51 190 83 203 28 12 97 12 115 1z"/>
<path d="M7830 16235 c-173 -58 -423 -139 -555 -182 -132 -42 -243 -79 -247
-83 -7 -5 114 -385 125 -396 2 -3 23 3 47 11 24 8 92 30 151 49 l109 34 155
-476 c267 -815 367 -1117 375 -1126 6 -6 477 141 511 160 4 2 -31 118 -76 256
-178 542 -434 1329 -437 1345 -2 12 30 26 150 65 83 27 152 52 152 56 0 21
-128 386 -136 389 -5 1 -151 -45 -324 -102z"/>
<path d="M6344 15657 c-308 -193 -366 -232 -371 -244 -3 -7 40 -84 94 -171
245 -387 293 -466 285 -474 -11 -11 -123 -78 -131 -78 -3 0 -94 140 -201 311
-106 170 -197 312 -202 315 -4 3 -18 -1 -30 -9 -291 -178 -428 -267 -428 -278
0 -7 123 -205 265 -429 23 -37 213 -340 420 -670 336 -537 405 -647 420 -667
l15 -22 168 106 c92 58 193 121 224 140 31 18 59 37 62 41 2 4 -19 46 -49 92
-210 336 -334 535 -372 594 -24 39 -40 73 -36 77 12 11 126 79 133 79 3 0 28
-36 56 -80 227 -369 416 -665 424 -663 7 2 154 92 240 148 19 12 76 48 127 79
l92 58 -86 136 c-243 387 -418 666 -528 842 -168 269 -393 628 -420 670 -12
19 -37 59 -55 88 -17 28 -35 52 -39 52 -4 0 -39 -20 -77 -43z"/>
<path d="M13205 15345 c-66 -30 -134 -60 -152 -68 -31 -14 -38 -12 -190 49
-87 35 -161 64 -166 64 -4 0 -5 -10 -3 -22 5 -25 12 -100 21 -243 l6 -90 -105
-125 c-58 -69 -106 -128 -106 -132 0 -9 40 -20 201 -55 l130 -28 86 -135 c47
-74 91 -141 97 -147 9 -10 32 23 100 137 49 83 91 150 93 150 8 0 328 83 332
86 2 2 -24 34 -57 71 -179 202 -173 194 -168 238 11 86 18 305 10 304 -5 -1
-63 -25 -129 -54z"/>
<path d="M4395 14160 l-279 -279 24 -33 c13 -18 116 -152 229 -298 637 -823
1015 -1313 1037 -1345 13 -19 25 -9 215 182 l202 201 -74 87 c-41 49 -96 115
-123 147 l-49 59 71 71 71 72 68 -60 c37 -32 73 -63 79 -69 32 -30 119 -101
132 -109 12 -7 59 35 210 189 107 108 190 200 185 204 -5 3 -25 18 -44 32 -19
14 -68 50 -109 81 -41 30 -129 94 -195 143 -66 49 -154 113 -195 144 -41 30
-97 71 -125 91 -27 21 -147 108 -265 195 -118 87 -237 174 -265 195 -119 87
-248 182 -355 261 -63 47 -126 93 -140 102 l-26 16 -279 -279z m517 -453 c148
-126 260 -218 421 -346 l107 -85 -67 -68 -68 -68 -32 37 c-105 122 -503 626
-503 638 0 11 14 1 142 -108z"/>
<path d="M3553 12990 c-128 -64 -204 -165 -423 -565 -84 -154 -154 -283 -157
-287 -4 -7 29 -25 902 -503 190 -104 522 -286 764 -419 96 -53 179 -96 185
-96 6 0 31 39 56 87 25 48 82 154 128 236 45 82 81 151 80 152 -2 1 -102 56
-223 123 -418 228 -500 273 -509 282 -6 6 18 63 58 142 36 73 74 162 82 198
20 78 15 179 -11 233 -42 89 -164 176 -460 328 -193 99 -251 119 -345 119 -54
0 -78 -6 -127 -30z m216 -470 c99 -47 248 -137 276 -168 15 -16 25 -38 25 -57
0 -29 -33 -115 -44 -115 -9 0 -350 187 -444 243 -32 19 -33 20 -16 46 57 90
98 100 203 51z"/>
<path d="M2646 11263 c-3 -10 -24 -85 -47 -168 -105 -382 -158 -579 -156 -581
4 -4 222 -97 617 -264 386 -163 444 -187 1014 -429 170 -72 314 -131 322 -131
14 0 17 9 99 309 31 112 55 211 53 219 -3 15 -15 20 -213 92 -66 24 -124 47
-128 50 -8 7 34 175 47 187 4 5 255 -41 352 -63 19 -5 23 2 36 53 9 32 41 149
72 261 31 111 56 207 56 212 0 12 -3 12 -400 60 -184 22 -407 49 -495 60 -470
57 -828 101 -1035 125 -69 9 -139 18 -157 20 -24 4 -33 2 -37 -12z m623 -518
c130 -24 318 -58 419 -74 101 -17 187 -33 192 -36 4 -3 2 -26 -6 -52 -8 -27
-19 -65 -25 -86 -9 -36 -13 -38 -37 -32 -79 20 -814 322 -788 324 5 1 115 -19
245 -44z"/>
<path d="M2297 9683 c-3 -5 -8 -179 -11 -388 -4 -209 -9 -422 -12 -472 l-5
-93 158 -1 c87 0 183 -2 213 -4 30 -2 231 -6 445 -9 215 -4 476 -8 580 -11
433 -11 725 -16 725 -13 0 2 3 126 7 276 l6 272 -119 1 c-65 1 -132 2 -149 4
-16 1 -246 6 -510 10 -264 4 -491 9 -505 10 -14 2 -112 4 -217 4 l-193 1 0
205 0 205 -167 0 c-93 1 -184 3 -204 6 -21 3 -39 2 -42 -3z"/>
<path d="M3569 8120 c-47 -21 -118 -52 -156 -68 l-70 -30 -159 63 -159 64 -3
-32 c-1 -18 4 -95 12 -172 l14 -140 -56 -70 c-31 -38 -81 -98 -110 -133 -30
-35 -51 -67 -46 -71 5 -4 65 -20 134 -35 69 -15 141 -32 161 -37 33 -8 45 -23
129 -155 51 -80 95 -142 99 -139 3 4 44 70 91 148 97 161 68 141 293 198 70
18 127 35 127 38 0 3 -51 63 -113 133 l-112 127 11 168 c6 92 8 171 5 174 -3
4 -45 -10 -92 -31z"/>
<path d="M16135 15643 c-10 -3 -31 -12 -45 -21 -32 -21 -14429 -10792 -14489
-10840 -86 -69 -115 -192 -68 -283 19 -36 1647 -2222 1755 -2356 46 -57 110
-87 187 -87 35 0 73 7 91 17 28 14 14415 10775 14513 10855 82 67 107 186 59
281 -24 48 -1703 2297 -1764 2363 -19 21 -49 45 -66 54 -33 17 -137 27 -173
17z m-896 -1535 c6 -18 21 -71 35 -118 13 -47 40 -140 60 -207 20 -68 52 -178
72 -245 20 -68 47 -161 61 -208 61 -211 73 -252 106 -365 43 -144 67 -227 142
-485 31 -107 67 -229 79 -270 42 -137 45 -123 -30 -180 -37 -27 -70 -50 -75
-50 -9 0 -32 70 -104 320 -69 236 -95 328 -142 485 -19 66 -46 158 -60 205
-13 47 -40 139 -60 205 -19 66 -46 158 -60 205 -13 47 -35 121 -48 165 -104
357 -135 464 -135 469 0 7 132 106 142 106 3 0 11 -15 17 -32z m-404 -437 c22
-10 63 -42 92 -72 74 -77 305 -389 344 -465 28 -57 31 -70 27 -127 -9 -105
-68 -189 -193 -273 -86 -58 -126 -74 -198 -81 -90 -8 -153 21 -228 108 -86 98
-296 387 -329 453 -38 76 -40 139 -5 213 45 98 170 206 285 246 62 22 156 21
205 -2z m1302 -227 c23 -13 61 -48 86 -76 76 -91 303 -401 326 -446 65 -128
15 -270 -132 -378 -101 -75 -152 -97 -238 -102 -70 -4 -81 -2 -129 24 -29 16
-71 51 -95 79 -84 100 -308 411 -331 460 -52 110 -21 221 90 330 134 131 308
176 423 109z m-1935 -381 c118 -56 184 -129 529 -593 269 -363 292 -395 334
-479 81 -161 58 -361 -57 -498 -91 -108 -247 -216 -378 -260 -165 -57 -351 -3
-492 143 -26 27 -179 226 -341 442 -229 305 -306 416 -348 499 l-54 107 0 105
c0 99 2 111 33 175 45 97 98 163 187 234 140 113 276 163 430 159 77 -2 100
-7 157 -34z m-1049 -786 c125 -59 162 -99 508 -562 229 -305 285 -384 337
-472 140 -237 63 -499 -202 -682 -192 -133 -335 -165 -490 -111 -85 29 -136
61 -201 127 -59 60 -564 725 -643 846 -116 180 -146 308 -103 443 30 91 60
141 133 219 140 150 335 238 511 230 64 -3 91 -9 150 -38z m-543 -1366 c314
-420 568 -767 563 -771 -21 -19 -373 -280 -377 -280 -3 0 -165 214 -361 476
-196 262 -379 501 -407 530 -45 47 -56 54 -90 54 -46 0 -80 -16 -170 -81 -37
-27 -72 -49 -78 -49 -5 0 -39 39 -75 87 -64 85 -65 87 -47 107 115 130 200
319 218 484 l7 64 111 83 c85 65 114 81 122 72 7 -7 269 -356 584 -776z
m-1681 -202 c64 -14 161 -65 205 -107 70 -68 180 -204 377 -467 379 -506 411
-564 410 -734 -1 -127 -49 -238 -150 -344 -78 -82 -176 -152 -273 -194 -73
-32 -96 -37 -184 -41 -86 -4 -111 -1 -168 18 -147 48 -200 103 -536 550 -317
422 -387 531 -409 638 -42 204 44 396 243 545 167 124 334 171 485 136z m-992
-844 c55 -27 88 -53 148 -117 130 -138 194 -247 195 -329 0 -47 -39 -138 -78
-183 -16 -18 -16 -19 3 -12 50 19 160 36 193 30 101 -18 171 -78 312 -264 158
-209 200 -293 200 -399 0 -74 -25 -123 -108 -205 -64 -66 -679 -537 -698 -535
-7 0 -212 272 -1132 1503 l-32 44 247 184 c137 102 273 201 303 220 184 115
304 132 447 63z m-968 -687 c61 -81 111 -151 111 -156 0 -6 -172 -140 -223
-174 -6 -3 190 -274 446 -616 251 -335 459 -616 462 -625 5 -10 -48 -54 -182
-154 -103 -76 -193 -142 -200 -146 -8 -5 -163 193 -472 608 -253 338 -464 615
-469 615 -5 0 -60 -38 -122 -85 -63 -47 -117 -82 -120 -78 -4 5 -56 73 -115
152 -80 106 -106 148 -99 159 12 18 856 651 866 649 4 -1 57 -68 117 -149z
m-994 -773 c41 -20 86 -55 145 -114 90 -91 275 -324 275 -346 0 -12 -380 -306
-394 -305 -3 1 -59 72 -124 159 -162 219 -192 251 -229 251 -35 0 -88 -48 -88
-80 0 -11 9 -39 20 -61 29 -56 668 -907 716 -952 44 -42 73 -46 114 -17 62 44
48 84 -102 285 -57 77 -107 145 -111 151 -7 11 371 304 392 304 24 0 187 -238
244 -358 39 -81 42 -93 42 -172 0 -186 -83 -335 -264 -474 -225 -173 -464
-204 -629 -82 -26 19 -81 69 -123 113 -87 89 -597 766 -664 881 -137 234 -64
506 189 696 154 116 268 157 426 153 92 -3 113 -7 165 -32z m-1030 -763 c58
-79 105 -146 102 -148 -2 -2 -63 -48 -134 -102 l-131 -98 105 -139 c58 -77
110 -139 117 -139 7 1 65 41 130 89 66 50 120 84 125 79 29 -32 211 -282 211
-290 -1 -5 -50 -45 -111 -89 -60 -43 -115 -85 -121 -92 -8 -10 18 -51 107
-171 65 -86 121 -161 126 -166 5 -5 67 35 144 93 75 56 142 104 150 107 9 4
51 -44 120 -135 58 -78 108 -148 111 -155 7 -17 -671 -530 -689 -523 -7 3
-270 350 -586 772 -490 654 -572 768 -560 780 8 8 158 122 334 254 243 183
323 237 331 228 6 -7 60 -76 119 -155z m-405 -1193 c300 -401 560 -749 578
-773 l32 -43 -192 -145 c-106 -79 -198 -147 -204 -151 -7 -4 -94 103 -229 283
-120 160 -219 290 -220 290 -1 0 -10 -24 -20 -52 -40 -125 -139 -241 -256
-303 -62 -33 -82 -38 -138 -38 -80 -1 -147 30 -224 101 -61 57 -651 842 -640
852 27 24 376 282 388 286 9 4 105 -116 298 -373 156 -208 298 -391 316 -406
90 -76 179 20 122 132 -11 20 -141 200 -290 399 -149 200 -271 367 -271 372 0
12 381 300 395 299 6 0 255 -329 555 -730z m-1017 -979 c328 -326 597 -597
597 -600 0 -7 -382 -297 -398 -302 -4 -2 -59 54 -121 124 -74 84 -117 125
-125 120 -7 -4 -40 -27 -74 -51 -58 -41 -61 -45 -49 -65 93 -144 167 -266 167
-274 0 -17 -766 -582 -789 -582 -70 0 -146 75 -335 327 -81 109 -148 189 -166
198 -45 23 -125 18 -159 -11 -2 -2 104 -147 235 -324 132 -176 240 -326 241
-333 2 -10 -377 -302 -392 -302 -2 0 -261 344 -576 765 -314 421 -575 770
-580 775 -5 7 62 64 182 154 105 78 196 144 204 147 8 4 99 -108 255 -315 133
-177 245 -321 250 -321 14 0 47 52 52 84 7 38 -7 80 -47 136 -264 376 -272
388 -298 464 -32 95 -36 89 159 235 96 73 181 134 188 137 9 3 15 -8 19 -35 9
-67 51 -138 193 -326 162 -215 181 -245 195 -319 16 -78 -8 -166 -66 -245
l-43 -58 71 25 c94 32 193 28 258 -11 61 -36 97 -76 253 -284 74 -100 155
-197 178 -216 46 -36 88 -62 88 -52 0 7 -39 78 -120 220 -32 55 -74 132 -95
170 -21 39 -64 115 -95 170 -31 55 -70 123 -85 150 -32 59 -191 343 -280 500
-34 61 -77 137 -95 170 -18 33 -62 110 -97 172 -34 62 -63 117 -63 122 0 6
129 108 287 226 l287 216 96 -94 c52 -52 364 -361 693 -687z"/>
<path d="M14598 13459 c-39 -22 -20 -56 176 -318 107 -142 199 -262 206 -266
18 -11 60 23 60 49 0 21 -363 519 -393 538 -16 10 -28 10 -49 -3z"/>
<path d="M15870 13240 c-11 -11 -20 -24 -20 -29 0 -24 399 -551 417 -551 27 0
53 21 53 43 0 22 -362 518 -397 545 -23 16 -30 15 -53 -8z"/>
<path d="M13826 12719 c-31 -24 -34 -62 -8 -110 31 -58 727 -983 761 -1011 38
-32 42 -33 80 -14 44 23 55 59 33 109 -20 44 -646 890 -733 990 -56 64 -87 72
-133 36z"/>
<path d="M12781 11934 c-45 -37 -41 -67 22 -160 88 -131 656 -885 705 -936 54
-56 81 -60 123 -19 35 35 36 53 6 106 -39 68 -732 990 -762 1013 -36 29 -57
28 -94 -4z"/>
<path d="M10643 10304 c-32 -32 -27 -65 19 -132 74 -108 650 -875 689 -917 46
-50 78 -57 118 -26 36 28 24 75 -45 174 -99 140 -625 838 -667 884 -46 50 -76
55 -114 17z"/>
<path d="M9592 9464 c-27 -16 -41 -31 -38 -39 11 -30 239 -325 251 -325 24 0
85 70 85 97 0 38 -72 154 -138 224 -70 73 -99 81 -160 43z"/>
<path d="M10074 8898 c-17 -6 -44 -20 -60 -33 l-28 -22 153 -206 c84 -114 157
-210 163 -213 6 -4 28 11 50 33 68 68 58 97 -99 303 -98 127 -131 153 -179
138z"/>
<path d="M4775 5605 c21 -38 47 -85 57 -102 68 -122 177 -310 247 -426 l53
-88 32 24 c17 13 46 34 64 47 17 13 32 28 32 33 0 5 -53 66 -118 136 -65 69
-178 194 -252 276 -73 83 -137 155 -143 160 -6 6 7 -21 28 -60z"/>
<path d="M16969 10525 c-3 -2 -72 -33 -155 -68 l-150 -64 -159 64 c-87 34
-161 61 -163 59 -4 -4 12 -209 23 -301 5 -38 1 -45 -72 -136 -43 -53 -93 -113
-111 -133 -18 -21 -31 -40 -28 -43 3 -3 79 -22 168 -42 l163 -37 95 -148 c92
-144 95 -147 110 -126 8 12 47 77 86 144 41 69 82 126 95 133 13 7 90 29 172
49 81 20 147 40 147 44 0 4 -50 63 -111 131 l-110 124 6 130 c3 72 8 151 12
178 5 41 -2 58 -18 42z"/>
<path d="M15485 8918 c-7 -43 -42 -342 -61 -528 -21 -199 -15 -375 16 -454 40
-104 128 -179 264 -226 154 -53 460 -67 541 -24 49 25 89 80 120 165 17 44 24
56 24 38 1 -42 41 -150 72 -195 39 -57 125 -98 244 -118 122 -20 734 -91 739
-85 6 7 60 488 55 494 -7 6 -106 20 -374 50 -501 58 -526 64 -543 128 -8 29
-7 96 2 104 2 2 95 -7 207 -21 469 -57 731 -87 733 -84 2 1 17 122 34 268 20
171 28 267 21 271 -5 3 -56 11 -112 17 -56 7 -235 27 -397 47 -950 113 -1563
185 -1571 185 -5 0 -11 -15 -14 -32z m473 -573 c70 -8 165 -20 210 -26 l84
-11 -7 -37 c-21 -112 -68 -128 -286 -97 -149 21 -179 45 -179 142 0 52 -8 51
178 29z"/>
<path d="M15302 7523 c-54 -138 -148 -400 -145 -406 4 -6 190 -156 373 -300
266 -210 390 -310 387 -314 -4 -3 -236 82 -705 259 -95 36 -166 57 -171 52
-11 -12 -151 -390 -151 -407 0 -9 96 -50 263 -112 784 -292 1353 -504 1516
-566 101 -38 188 -69 192 -69 4 0 13 17 20 38 6 20 43 120 80 221 38 101 68
185 67 187 -2 1 -52 39 -113 85 -60 45 -235 177 -388 292 -153 115 -276 211
-274 214 4 4 253 -87 733 -268 72 -27 135 -49 140 -49 8 0 169 420 162 424 -4
3 -114 44 -558 209 -184 69 -506 189 -715 267 -501 187 -697 260 -702 260 -2
0 -7 -8 -11 -17z"/>
<path d="M14515 5824 c-384 -554 -355 -484 -235 -566 36 -24 102 -70 147 -101
46 -31 86 -57 90 -57 5 0 48 59 97 130 49 72 90 130 91 130 2 0 314 -216 695
-480 381 -264 696 -477 700 -475 10 6 299 423 303 435 1 5 -77 64 -173 131
-166 116 -206 143 -368 255 -63 45 -109 76 -255 177 -34 24 -100 70 -147 102
-47 32 -130 90 -185 129 -55 38 -133 92 -173 119 -40 27 -74 53 -77 57 -2 4
36 65 85 136 69 100 87 132 77 141 -22 21 -318 223 -327 223 -5 0 -160 -219
-345 -486z"/>
<path d="M14070 5182 c-36 -31 -126 -110 -200 -176 -74 -65 -135 -122 -135
-126 0 -7 59 -76 398 -462 48 -55 87 -103 87 -107 0 -11 -110 -103 -119 -99
-9 3 -191 208 -374 421 -65 75 -121 137 -124 137 -3 0 -78 -64 -167 -142 -89
-79 -179 -158 -201 -176 -38 -31 -39 -33 -25 -56 8 -14 103 -125 210 -247 194
-221 317 -362 690 -789 107 -123 257 -294 334 -381 l138 -159 38 33 c20 17 99
86 174 152 76 66 152 132 169 146 28 24 30 29 17 45 -16 20 -36 43 -360 413
-107 122 -196 228 -198 236 -3 13 96 105 113 104 5 0 55 -52 110 -116 55 -64
170 -196 255 -292 85 -97 169 -194 186 -214 l31 -38 46 38 c105 86 365 319
364 325 -2 6 -116 138 -467 538 -85 97 -240 275 -345 395 -104 120 -260 297
-345 394 -85 97 -170 195 -189 219 -19 23 -37 42 -40 42 -3 -1 -35 -27 -71
-58z"/>
<path d="M12690 4104 c-63 -36 -144 -82 -180 -101 -96 -53 -384 -216 -389
-220 -6 -5 18 -69 167 -438 71 -176 222 -549 335 -830 276 -686 275 -683 284
-699 7 -12 28 -4 111 44 56 32 128 73 159 91 32 17 85 47 118 66 33 19 70 39
83 45 12 6 22 14 22 18 0 4 -21 52 -46 106 -90 192 -104 225 -104 233 0 10
127 86 157 94 14 5 39 -26 118 -145 55 -82 103 -152 107 -154 3 -2 33 11 65
30 32 18 81 46 108 61 28 15 109 61 182 102 l132 75 -101 131 c-56 73 -118
152 -138 177 -21 25 -107 135 -192 245 -184 239 -339 438 -493 635 -63 80
-175 224 -250 320 -76 96 -138 176 -139 177 -1 1 -53 -27 -116 -63z m175 -750
c44 -64 142 -205 217 -312 75 -108 135 -199 132 -203 -6 -10 -154 -92 -158
-88 -9 13 -71 155 -148 339 -49 118 -93 224 -98 235 -20 44 -78 191 -85 215
-7 27 5 11 140 -186z"/>
<path d="M11465 3559 c-121 -22 -722 -182 -737 -197 -4 -4 1 -37 11 -72 11
-36 38 -135 61 -220 24 -85 60 -218 82 -295 21 -77 45 -167 54 -200 9 -33 22
-80 29 -105 8 -25 25 -90 40 -145 15 -55 33 -120 40 -145 7 -25 26 -90 40
-145 27 -98 43 -158 83 -300 11 -38 32 -115 47 -170 14 -55 33 -120 41 -144 8
-25 14 -53 14 -63 0 -31 21 -30 141 3 63 17 128 35 144 39 17 4 56 15 88 24
31 9 81 23 111 31 54 15 54 15 46 47 -4 18 -53 198 -109 400 -55 201 -101 373
-101 381 0 10 32 23 103 41 225 60 367 159 402 281 27 93 13 183 -76 494 -78
270 -130 365 -234 426 -72 42 -199 55 -320 34z m31 -393 c35 -25 90 -182 126
-359 14 -74 -4 -119 -56 -141 -81 -34 -72 -48 -147 224 -38 135 -68 253 -69
262 0 27 111 38 146 14z"/>
<path d="M8345 3528 c-3 -7 -45 -200 -95 -428 -179 -820 -243 -1109 -296
-1349 -30 -135 -54 -252 -54 -261 0 -13 27 -23 123 -44 318 -71 401 -86 407
-75 4 6 15 50 25 97 9 48 21 103 26 122 5 19 77 345 159 724 83 380 152 692
155 694 2 2 28 -1 57 -8 199 -43 332 -70 334 -67 2 2 23 93 47 203 l44 199
-26 8 c-24 7 -890 197 -898 197 -2 0 -6 -6 -8 -12z"/>
<path d="M10148 3345 c-2 -1 -135 -5 -297 -8 -162 -4 -295 -8 -297 -10 -2 -2
-8 -44 -13 -93 -11 -105 -149 -1393 -189 -1768 l-28 -259 280 8 c155 4 282 8
283 9 1 1 7 85 14 186 6 102 12 186 13 187 1 1 45 5 98 9 96 6 97 6 102 -17 5
-25 36 -324 36 -348 0 -11 46 -12 278 -6 152 4 278 8 280 10 3 2 -39 248 -103
610 -18 105 -54 312 -80 460 -26 149 -71 407 -100 575 -30 168 -59 340 -66
383 l-13 78 -98 -2 c-53 -1 -98 -3 -100 -4z m-133 -755 c10 -85 30 -256 45
-380 16 -124 28 -226 27 -227 -6 -5 -177 -6 -183 -1 -10 11 56 771 73 838 7
30 12 2 38 -230z"/>
<path d="M7147 3220 l-158 -68 -152 60 c-84 33 -158 62 -166 65 -11 5 -12 -4
-7 -43 3 -27 10 -106 17 -177 l11 -127 -74 -87 c-127 -152 -150 -183 -136
-188 7 -2 85 -20 173 -39 88 -19 161 -39 162 -43 2 -4 23 -39 48 -78 25 -38
64 -100 88 -137 23 -37 44 -68 47 -68 3 1 41 62 85 137 44 74 85 141 90 149 6
7 82 31 169 53 88 23 161 43 164 46 3 3 -1 13 -10 22 -44 54 -147 172 -175
203 -37 40 -37 36 -22 222 6 75 9 144 7 152 -2 11 -39 -1 -161 -54z"/>
</g>
</svg>
